<?xml version="1.0" encoding="UTF-8" standalone="no"?>
<svg width="456" height="456" viewBox="0 0 456 456" version="1.1" xmlns="http://www.w3.org/2000/svg">
    <!-- Background -->
    <rect x="0" y="0" width="456" height="456" fill="#2E7D32" rx="80" />
    
    <!-- Sheep silhouette -->
    <g transform="translate(228, 228)">
        <!-- Sheep body -->
        <ellipse cx="0" cy="20" rx="80" ry="50" fill="#FFFFFF" />
        
        <!-- Sheep head -->
        <circle cx="0" cy="-40" r="35" fill="#FFFFFF" />
        
        <!-- Sheep wool texture -->
        <circle cx="-25" cy="10" r="18" fill="#F5F5F5" />
        <circle cx="25" cy="10" r="18" fill="#F5F5F5" />
        <circle cx="0" cy="35" r="20" fill="#F5F5F5" />
        <circle cx="-15" cy="-25" r="15" fill="#F5F5F5" />
        <circle cx="15" cy="-25" r="15" fill="#F5F5F5" />
        
        <!-- Sheep face -->
        <ellipse cx="-8" cy="-45" rx="3" ry="4" fill="#333333" />
        <ellipse cx="8" cy="-45" rx="3" ry="4" fill="#333333" />
        <ellipse cx="0" cy="-35" rx="2" ry="3" fill="#333333" />
        
        <!-- Sheep legs -->
        <rect x="-30" y="60" width="8" height="25" fill="#333333" rx="4" />
        <rect x="-10" y="60" width="8" height="25" fill="#333333" rx="4" />
        <rect x="10" y="60" width="8" height="25" fill="#333333" rx="4" />
        <rect x="30" y="60" width="8" height="25" fill="#333333" rx="4" />
    </g>
    
    <!-- FlockForge text -->
    <text x="228" y="380" text-anchor="middle" font-family="Arial, sans-serif" font-size="32" font-weight="bold" fill="#FFFFFF">FlockForge</text>
</svg>